<svg xmlns="http://www.w3.org/2000/svg" viewBox="0 0 500 500" width="500" height="500">
  <style>
    .st0{fill:#f8f9fa}.st1{fill:#4a6fa5}.st2{fill:#166088}.st3{fill:#343a40}.st4{fill:#ffc107}
  </style>
  <g>
    <path class="st0" d="M448.7 250c0 109.7-89 198.7-198.7 198.7S51.3 359.7 51.3 250 140.3 51.3 250 51.3s198.7 89 198.7 198.7z"/>
    <path class="st1" d="M131.2 195.8h36.1v108.4h-36.1z"/>
    <path class="st2" d="M131.2 195.8h36.1v27.1h-36.1z"/>
    <path class="st1" d="M232.5 195.8h36.1v108.4h-36.1z"/>
    <path class="st2" d="M232.5 195.8h36.1v27.1h-36.1z"/>
    <path class="st1" d="M333.8 195.8h36.1v108.4h-36.1z"/>
    <path class="st2" d="M333.8 195.8h36.1v27.1h-36.1z"/>
    <path class="st3" d="M149.2 304.2h-36.1l36.1-108.4h36.1z"/>
    <path class="st3" d="M250.5 304.2h-36.1l36.1-108.4h36.1z"/>
    <path class="st3" d="M351.8 304.2h-36.1l36.1-108.4h36.1z"/>
    <path class="st4" d="M250 350c-11 0-20-9-20-20s9-20 20-20 20 9 20 20-9 20-20 20z"/>
  </g>
</svg>